<svg width="24" height="23" viewBox="0 0 24 23" fill="none" xmlns="http://www.w3.org/2000/svg">
<mask id="path-1-outside-1_0_593" maskUnits="userSpaceOnUse" x="0" y="0" width="24" height="23" fill="black">
<rect fill="white" width="24" height="23"/>
<path fill-rule="evenodd" clip-rule="evenodd" d="M15.8575 15.8575C14.4203 17.2947 12.4348 18.1836 10.2418 18.1836C5.85566 18.1836 2.3 14.6279 2.3 10.2418C2.3 5.85566 5.85566 2.3 10.2418 2.3C14.6279 2.3 18.1836 5.85566 18.1836 10.2418C18.1836 11.9804 17.6249 13.5886 16.6772 14.8965L15.7869 15.7869L15.8575 15.8575ZM16.7767 16.7767C15.1043 18.4491 12.7938 19.4836 10.2418 19.4836C5.13769 19.4836 1 15.3459 1 10.2418C1 5.13769 5.13769 1 10.2418 1C15.3459 1 19.4836 5.13769 19.4836 10.2418C19.4836 12.325 18.7943 14.2472 17.6314 15.7929L22.8673 21.0288L21.948 21.948L16.7767 16.7767Z"/>
</mask>
<path fill-rule="evenodd" clip-rule="evenodd" d="M15.8575 15.8575C14.4203 17.2947 12.4348 18.1836 10.2418 18.1836C5.85566 18.1836 2.3 14.6279 2.3 10.2418C2.3 5.85566 5.85566 2.3 10.2418 2.3C14.6279 2.3 18.1836 5.85566 18.1836 10.2418C18.1836 11.9804 17.6249 13.5886 16.6772 14.8965L15.7869 15.7869L15.8575 15.8575ZM16.7767 16.7767C15.1043 18.4491 12.7938 19.4836 10.2418 19.4836C5.13769 19.4836 1 15.3459 1 10.2418C1 5.13769 5.13769 1 10.2418 1C15.3459 1 19.4836 5.13769 19.4836 10.2418C19.4836 12.325 18.7943 14.2472 17.6314 15.7929L22.8673 21.0288L21.948 21.948L16.7767 16.7767Z" fill="#AEB4C1"/>
<path d="M15.8575 15.8575L16.1403 16.1403L16.4232 15.8575L16.1403 15.5746L15.8575 15.8575ZM16.6772 14.8965L16.96 15.1793L16.9825 15.1569L17.0011 15.1312L16.6772 14.8965ZM15.7869 15.7869L15.504 15.504L15.2212 15.7869L15.504 16.0697L15.7869 15.7869ZM16.7767 16.7767L17.0596 16.4939L16.7767 16.211L16.4939 16.4939L16.7767 16.7767ZM17.6314 15.7929L17.3117 15.5524L17.1028 15.83L17.3485 16.0757L17.6314 15.7929ZM22.8673 21.0288L23.1501 21.3116L23.433 21.0288L23.1501 20.746L22.8673 21.0288ZM21.948 21.948L21.6652 22.2309L21.948 22.5137L22.2309 22.2309L21.948 21.948ZM10.2418 18.5836C12.5452 18.5836 14.6312 17.6494 16.1403 16.1403L15.5746 15.5746C14.2094 16.9399 12.3245 17.7836 10.2418 17.7836V18.5836ZM1.9 10.2418C1.9 14.8488 5.63474 18.5836 10.2418 18.5836V17.7836C6.07657 17.7836 2.7 14.407 2.7 10.2418H1.9ZM10.2418 1.9C5.63474 1.9 1.9 5.63474 1.9 10.2418H2.7C2.7 6.07657 6.07657 2.7 10.2418 2.7V1.9ZM18.5836 10.2418C18.5836 5.63474 14.8488 1.9 10.2418 1.9V2.7C14.407 2.7 17.7836 6.07657 17.7836 10.2418H18.5836ZM17.0011 15.1312C17.9966 13.7573 18.5836 12.0675 18.5836 10.2418H17.7836C17.7836 11.8934 17.2532 13.4199 16.3533 14.6618L17.0011 15.1312ZM16.0697 16.0697L16.96 15.1793L16.3944 14.6137L15.504 15.504L16.0697 16.0697ZM16.1403 15.5746L16.0697 15.504L15.504 16.0697L15.5746 16.1403L16.1403 15.5746ZM10.2418 19.8836C12.9042 19.8836 15.3152 18.8039 17.0596 17.0596L16.4939 16.4939C14.8934 18.0944 12.6835 19.0836 10.2418 19.0836V19.8836ZM0.6 10.2418C0.6 15.5668 4.91677 19.8836 10.2418 19.8836V19.0836C5.3586 19.0836 1.4 15.125 1.4 10.2418H0.6ZM10.2418 0.6C4.91677 0.6 0.6 4.91677 0.6 10.2418H1.4C1.4 5.3586 5.3586 1.4 10.2418 1.4V0.6ZM19.8836 10.2418C19.8836 4.91677 15.5668 0.6 10.2418 0.6V1.4C15.125 1.4 19.0836 5.3586 19.0836 10.2418H19.8836ZM17.951 16.0334C19.1643 14.4208 19.8836 12.4147 19.8836 10.2418H19.0836C19.0836 12.2353 18.4243 14.0737 17.3117 15.5524L17.951 16.0334ZM17.3485 16.0757L22.5844 21.3116L23.1501 20.746L17.9142 15.51L17.3485 16.0757ZM22.5844 20.746L21.6652 21.6652L22.2309 22.2309L23.1501 21.3116L22.5844 20.746ZM22.2309 21.6652L17.0596 16.4939L16.4939 17.0596L21.6652 22.2309L22.2309 21.6652Z" fill="#AEB4C1" mask="url(#path-1-outside-1_0_593)"/>
</svg>
