<svg width="18" height="17" viewBox="0 0 18 17" fill="none" xmlns="http://www.w3.org/2000/svg">
<mask id="path-1-outside-1_0_887" maskUnits="userSpaceOnUse" x="0" y="0" width="18" height="17" fill="black">
<rect fill="white" width="18" height="17"/>
<path fill-rule="evenodd" clip-rule="evenodd" d="M13.1005 7.70023C13.1005 10.6827 10.6827 13.1005 7.70023 13.1005C4.71777 13.1005 2.3 10.6827 2.3 7.70023C2.3 4.71777 4.71777 2.3 7.70023 2.3C10.6827 2.3 13.1005 4.71777 13.1005 7.70023ZM12.438 12.4381C11.2255 13.6505 9.55043 14.4005 7.70023 14.4005C3.9998 14.4005 1 11.4007 1 7.70023C1 3.9998 3.9998 1 7.70023 1C11.4007 1 14.4005 3.9998 14.4005 7.70023C14.4005 9.08051 13.9831 10.3633 13.2677 11.4293L17.1064 15.268L16.1872 16.1873L12.438 12.4381Z"/>
</mask>
<path fill-rule="evenodd" clip-rule="evenodd" d="M13.1005 7.70023C13.1005 10.6827 10.6827 13.1005 7.70023 13.1005C4.71777 13.1005 2.3 10.6827 2.3 7.70023C2.3 4.71777 4.71777 2.3 7.70023 2.3C10.6827 2.3 13.1005 4.71777 13.1005 7.70023ZM12.438 12.4381C11.2255 13.6505 9.55043 14.4005 7.70023 14.4005C3.9998 14.4005 1 11.4007 1 7.70023C1 3.9998 3.9998 1 7.70023 1C11.4007 1 14.4005 3.9998 14.4005 7.70023C14.4005 9.08051 13.9831 10.3633 13.2677 11.4293L17.1064 15.268L16.1872 16.1873L12.438 12.4381Z" fill="#AEB4C1"/>
<path d="M12.438 12.4381L12.7208 12.1552L12.438 11.8724L12.1551 12.1552L12.438 12.4381ZM13.2677 11.4293L12.9356 11.2064L12.7522 11.4795L12.9848 11.7121L13.2677 11.4293ZM17.1064 15.268L17.3893 15.5509L17.6721 15.268L17.3893 14.9852L17.1064 15.268ZM16.1872 16.1873L15.9044 16.4701L16.1872 16.753L16.47 16.4701L16.1872 16.1873ZM7.70023 13.5005C10.9036 13.5005 13.5005 10.9036 13.5005 7.70023H12.7005C12.7005 10.4618 10.4618 12.7005 7.70023 12.7005V13.5005ZM1.9 7.70023C1.9 10.9036 4.49685 13.5005 7.70023 13.5005V12.7005C4.93868 12.7005 2.7 10.4618 2.7 7.70023H1.9ZM7.70023 1.9C4.49685 1.9 1.9 4.49685 1.9 7.70023H2.7C2.7 4.93868 4.93868 2.7 7.70023 2.7V1.9ZM13.5005 7.70023C13.5005 4.49685 10.9036 1.9 7.70023 1.9V2.7C10.4618 2.7 12.7005 4.93868 12.7005 7.70023H13.5005ZM7.70023 14.8005C9.66078 14.8005 11.4364 14.0053 12.7208 12.7209L12.1551 12.1552C11.0146 13.2957 9.44009 14.0005 7.70023 14.0005V14.8005ZM0.6 7.70023C0.6 11.6216 3.77888 14.8005 7.70023 14.8005V14.0005C4.22071 14.0005 1.4 11.1798 1.4 7.70023H0.6ZM7.70023 0.6C3.77888 0.6 0.6 3.77888 0.6 7.70023H1.4C1.4 4.22071 4.22071 1.4 7.70023 1.4V0.6ZM14.8005 7.70023C14.8005 3.77888 11.6216 0.6 7.70023 0.6V1.4C11.1798 1.4 14.0005 4.22071 14.0005 7.70023H14.8005ZM13.5998 11.6522C14.3581 10.5223 14.8005 9.16234 14.8005 7.70023H14.0005C14.0005 8.99867 13.6081 10.2043 12.9356 11.2064L13.5998 11.6522ZM12.9848 11.7121L16.8236 15.5509L17.3893 14.9852L13.5505 11.1465L12.9848 11.7121ZM16.8236 14.9852L15.9044 15.9044L16.47 16.4701L17.3893 15.5509L16.8236 14.9852ZM16.47 15.9044L12.7208 12.1552L12.1551 12.7209L15.9044 16.4701L16.47 15.9044Z" fill="#AEB4C1" mask="url(#path-1-outside-1_0_887)"/>
</svg>
